<svg xmlns="http://www.w3.org/2000/svg" viewBox="0 0 1600 1000"><defs><radialGradient id="a" cx="25%" cy="20%" r="70%"><stop offset="0" stop-color="#2563eb"/><stop offset=".58" stop-color="#0b1024"/><stop offset="1" stop-color="#050816"/></radialGradient><radialGradient id="b" cx="82%" cy="35%" r="60%"><stop offset="0" stop-color="#c81e46" stop-opacity=".75"/><stop offset="1" stop-color="#0b1024" stop-opacity="0"/></radialGradient><linearGradient id="s" x1="0" x2="1"><stop stop-color="#22d3ee"/><stop offset=".5" stop-color="#7c3aed"/><stop offset="1" stop-color="#c81e46"/></linearGradient><filter id="g"><feGaussianBlur stdDeviation="9" result="x"/><feMerge><feMergeNode in="x"/><feMergeNode in="SourceGraphic"/></feMerge></filter></defs><rect width="1600" height="1000" fill="url(#a)"/><rect width="1600" height="1000" fill="url(#b)"/><g opacity=".35" stroke="#5aa2ff" stroke-width="2"><path d="M0 170h300l80 80h360"/><path d="M1600 260h-260l-70 70H980"/><path d="M140 860h360l90-90h390"/><path d="M1460 820h-350l-80-80H760"/></g><rect x="155" y="145" width="1290" height="710" rx="52" fill="#070b1a" fill-opacity=".58" stroke="url(#s)" stroke-width="4"/><circle cx="800" cy="475" r="220" fill="none" stroke="#22d3ee" stroke-width="8" opacity=".7" filter="url(#g)"/><circle cx="800" cy="475" r="170" fill="none" stroke="#c81e46" stroke-width="6" opacity=".65" filter="url(#g)"/><g fill="none" stroke="#eaf6ff" stroke-width="18" stroke-linecap="round" stroke-linejoin="round" filter="url(#g)"><path d="M720 445c0-70 50-120 120-120s120 50 120 120-50 120-120 120h-95l-75 65 25-92c-38-22-60-55-60-93z"/><path d="M765 443h5M840 443h5M915 443h5"/></g><text x="800" y="710" text-anchor="middle" font-family="Inter, Arial" font-size="76" font-weight="800" fill="#f8fbff">Project Media</text><text x="800" y="770" text-anchor="middle" font-family="Inter, Arial" font-size="34" fill="#b7c7dd">AI systems • product demos • engineering story</text></svg>