<svg xmlns="http://www.w3.org/2000/svg" viewBox="0 0 1200 720">
<defs>
  <linearGradient id="g" x1="0" x2="1"><stop stop-color="#ff7a1a"/><stop offset="1" stop-color="#ffd166"/></linearGradient>
  <linearGradient id="gb" x1="0" y1="0" x2="0" y2="1"><stop stop-color="#1a2a4a"/><stop offset="1" stop-color="#0b1020"/></linearGradient>
  <filter id="s"><feDropShadow dx="0" dy="12" stdDeviation="14" flood-opacity=".4"/></filter>
</defs>
<rect width="1200" height="720" rx="42" fill="#0b1020"/>
<text x="600" y="72" text-anchor="middle" fill="#fff" font-family="Arial" font-size="46" font-weight="800">Elevate Underground</text>
<text x="600" y="110" text-anchor="middle" fill="#b9c7e6" font-family="Arial" font-size="22">Illinois Tech Robotics · Lab Access Platform</text>

<!-- Main dashboard panel -->
<g filter="url(#s)">
  <rect x="160" y="148" width="880" height="420" rx="20" fill="url(#gb)" stroke="url(#g)" stroke-width="2.5"/>
  <!-- Topbar -->
  <rect x="160" y="148" width="880" height="52" rx="20" fill="#111a33"/>
  <rect x="160" y="178" width="880" height="22" rx="0" fill="#111a33"/>
  <circle cx="196" cy="174" r="7" fill="#ff5f57"/>
  <circle cx="216" cy="174" r="7" fill="#febc2e"/>
  <circle cx="236" cy="174" r="7" fill="#28c840"/>
  <text x="600" y="180" text-anchor="middle" fill="#b9c7e6" font-family="Arial" font-size="14">itr-lab-access.vercel.app</text>

  <!-- Calendar grid -->
  <rect x="180" y="218" width="520" height="330" rx="10" fill="#0d1628"/>
  <text x="440" y="244" text-anchor="middle" fill="#fff" font-family="Arial" font-size="16" font-weight="700">7-Day Schedule</text>
  <!-- Day headers -->
  <text x="210" y="268" fill="#ff7a1a" font-family="Arial" font-size="13" font-weight="600">MON</text>
  <text x="278" y="268" fill="#ff7a1a" font-family="Arial" font-size="13" font-weight="600">TUE</text>
  <text x="346" y="268" fill="#ff7a1a" font-family="Arial" font-size="13" font-weight="600">WED</text>
  <text x="414" y="268" fill="#ff7a1a" font-family="Arial" font-size="13" font-weight="600">THU</text>
  <text x="482" y="268" fill="#ff7a1a" font-family="Arial" font-size="13" font-weight="600">FRI</text>
  <!-- Calendar slots -->
  <rect x="192" y="276" width="52" height="36" rx="6" fill="#16213d"/>
  <rect x="260" y="276" width="52" height="36" rx="6" fill="#ff7a1a" opacity=".8"/>
  <rect x="328" y="276" width="52" height="36" rx="6" fill="#16213d"/>
  <rect x="396" y="276" width="52" height="36" rx="6" fill="#ff7a1a" opacity=".5"/>
  <rect x="464" y="276" width="52" height="36" rx="6" fill="#16213d"/>
  <text x="286" y="299" text-anchor="middle" fill="#fff" font-family="Arial" font-size="11">Booked</text>
  <text x="422" y="299" text-anchor="middle" fill="#fff" font-family="Arial" font-size="11">Pending</text>
  <rect x="192" y="320" width="52" height="36" rx="6" fill="#16213d"/>
  <rect x="260" y="320" width="52" height="36" rx="6" fill="#16213d"/>
  <rect x="328" y="320" width="52" height="36" rx="6" fill="#ff7a1a" opacity=".8"/>
  <rect x="396" y="320" width="52" height="36" rx="6" fill="#16213d"/>
  <rect x="464" y="320" width="52" height="36" rx="6" fill="#ff7a1a" opacity=".6"/>
  <text x="354" y="343" text-anchor="middle" fill="#fff" font-family="Arial" font-size="11">Booked</text>
  <text x="490" y="343" text-anchor="middle" fill="#fff" font-family="Arial" font-size="11">Pending</text>
  <rect x="192" y="364" width="52" height="36" rx="6" fill="#ff7a1a" opacity=".7"/>
  <rect x="260" y="364" width="52" height="36" rx="6" fill="#16213d"/>
  <rect x="328" y="364" width="52" height="36" rx="6" fill="#16213d"/>
  <rect x="396" y="364" width="52" height="36" rx="6" fill="#ff7a1a" opacity=".8"/>
  <rect x="464" y="364" width="52" height="36" rx="6" fill="#16213d"/>
  <text x="218" y="387" text-anchor="middle" fill="#fff" font-family="Arial" font-size="11">Booked</text>
  <text x="422" y="387" text-anchor="middle" fill="#fff" font-family="Arial" font-size="11">Booked</text>
  <text x="440" y="430" text-anchor="middle" fill="#b9c7e6" font-family="Arial" font-size="13">Neon Postgres · Drizzle ORM · ICS parsing</text>

  <!-- Admin sidebar -->
  <rect x="720" y="218" width="300" height="330" rx="10" fill="#0d1628"/>
  <text x="870" y="244" text-anchor="middle" fill="#fff" font-family="Arial" font-size="15" font-weight="700">Admin Panel</text>
  <rect x="736" y="254" width="268" height="40" rx="8" fill="#111a33"/>
  <text x="870" y="279" text-anchor="middle" fill="#ff7a1a" font-family="Arial" font-size="13">Pending Approvals (3)</text>
  <rect x="736" y="302" width="268" height="32" rx="6" fill="#16213d"/>
  <text x="760" y="323" fill="#b9c7e6" font-family="Arial" font-size="12">Danish N.  -  Mon 9am–12pm</text>
  <rect x="952" y="306" width="40" height="24" rx="5" fill="#28c840"/>
  <text x="972" y="322" text-anchor="middle" fill="#fff" font-family="Arial" font-size="11">✓</text>
  <rect x="736" y="342" width="268" height="32" rx="6" fill="#16213d"/>
  <text x="760" y="363" fill="#b9c7e6" font-family="Arial" font-size="12">Maria T.  -  Wed 2pm–5pm</text>
  <rect x="952" y="346" width="40" height="24" rx="5" fill="#28c840"/>
  <text x="972" y="362" text-anchor="middle" fill="#fff" font-family="Arial" font-size="11">✓</text>
  <rect x="736" y="382" width="268" height="32" rx="6" fill="#16213d"/>
  <text x="760" y="403" fill="#b9c7e6" font-family="Arial" font-size="12">Jake R.  -  Fri 10am–1pm</text>
  <rect x="952" y="386" width="40" height="24" rx="5" fill="#16213d" stroke="#ff7a1a" stroke-width="1"/>
  <text x="972" y="402" text-anchor="middle" fill="#ff7a1a" font-family="Arial" font-size="11">?</text>

  <!-- Discord status -->
  <rect x="736" y="428" width="268" height="100" rx="8" fill="#111a33"/>
  <text x="870" y="450" text-anchor="middle" fill="#b9c7e6" font-family="Arial" font-size="12" font-weight="600">Discord Bot · Lab Status</text>
  <rect x="752" y="458" width="88" height="24" rx="5" fill="#28c840" opacity=".85"/>
  <text x="796" y="474" text-anchor="middle" fill="#fff" font-family="Arial" font-size="11" font-weight="700">OPEN</text>
  <rect x="848" y="458" width="88" height="24" rx="5" fill="#16213d" stroke="#ff7a1a" stroke-width="1"/>
  <text x="892" y="474" text-anchor="middle" fill="#b9c7e6" font-family="Arial" font-size="11">LIMBO</text>
  <rect x="944" y="458" width="44" height="24" rx="5" fill="#ff5f57" opacity=".7"/>
  <text x="966" y="474" text-anchor="middle" fill="#fff" font-family="Arial" font-size="11">OFF</text>
  <text x="870" y="510" text-anchor="middle" fill="#b9c7e6" font-family="Arial" font-size="11">5 REST endpoints · API key auth</text>
</g>

<text x="600" y="610" text-anchor="middle" fill="#fff" font-family="Arial" font-size="18" font-weight="700">Next.js 14 · Neon Postgres · Drizzle ORM · Nodemailer · Vercel</text>
<text x="600" y="640" text-anchor="middle" fill="#b9c7e6" font-family="Arial" font-size="15">Full-stack production app replacing manual lab coordination for Illinois Tech Robotics</text>
</svg>
