<svg xmlns="http://www.w3.org/2000/svg" viewBox="0 0 1200 720">
<defs>
  <linearGradient id="g" x1="0" x2="1"><stop stop-color="#ff7a1a"/><stop offset="1" stop-color="#ffd166"/></linearGradient>
  <filter id="s"><feDropShadow dx="0" dy="14" stdDeviation="16" flood-opacity=".4"/></filter>
</defs>
<rect width="1200" height="720" rx="42" fill="#0b1020"/>
<text x="600" y="68" text-anchor="middle" fill="#fff" font-family="Arial" font-size="48" font-weight="800">DNS Email Auth Scanner</text>
<text x="600" y="104" text-anchor="middle" fill="#b9c7e6" font-family="Arial" font-size="21">SPF В· DKIM В· DMARC Automation В· Technology Transition Paradigm</text>

<!-- Terminal window -->
<g filter="url(#s)">
  <rect x="80" y="136" width="640" height="420" rx="16" fill="#0d1219"/>
  <rect x="80" y="136" width="640" height="46" rx="16" fill="#1a1f2a"/>
  <rect x="80" y="168" width="640" height="14" rx="0" fill="#1a1f2a"/>
  <circle cx="110" cy="158" r="7" fill="#ff5f57"/>
  <circle cx="132" cy="158" r="7" fill="#febc2e"/>
  <circle cx="154" cy="158" r="7" fill="#28c840"/>
  <text x="400" y="163" text-anchor="middle" fill="#8894a8" font-family="monospace" font-size="13">dns_screening_tool.py</text>

  <!-- Terminal content -->
  <text x="104" y="204" fill="#28c840" font-family="monospace" font-size="13">$ python dns_screening_tool.py --domains client_list.csv</text>
  <text x="104" y="228" fill="#8894a8" font-family="monospace" font-size="12">Scanning 47 domains for SPF, DKIM, DMARC posture...</text>
  <text x="104" y="252" fill="#8894a8" font-family="monospace" font-size="12">в”Ѓв”Ѓв”Ѓв”Ѓв”Ѓв”Ѓв”Ѓв”Ѓв”Ѓв”Ѓв”Ѓв”Ѓв”Ѓв”Ѓв”Ѓв”Ѓв”Ѓв”Ѓв”Ѓв”Ѓв”Ѓв”Ѓв”Ѓв”Ѓв”Ѓв”Ѓв”Ѓв”Ѓв”Ѓв”Ѓв”Ѓв”Ѓв”Ѓв”Ѓв”Ѓв”Ѓв”Ѓв”Ѓв”Ѓв”Ѓв”Ѓв”Ѓв”Ѓв”Ѓв”Ѓв”Ѓв”Ѓв”Ѓв”Ѓв”Ѓв”Ѓ</text>

  <text x="104" y="276" fill="#b9c7e6" font-family="monospace" font-size="12">Domain: example-client.com</text>
  <text x="104" y="294" fill="#28c840" font-family="monospace" font-size="12">  вњ“ SPF     v=spf1 include:_spf.google.com ~all  [PASS]</text>
  <text x="104" y="312" fill="#28c840" font-family="monospace" font-size="12">  вњ“ DKIM    google._domainkey  -  2048-bit RSA     [PASS]</text>
  <text x="104" y="330" fill="#febc2e" font-family="monospace" font-size="12">  вљ  DMARC   p=none  (monitoring only  -  not enforced) [WARN]</text>

  <text x="104" y="354" fill="#b9c7e6" font-family="monospace" font-size="12">Domain: at-risk-domain.org</text>
  <text x="104" y="372" fill="#ff5f57" font-family="monospace" font-size="12">  вњ -  SPF     Record not found                     [FAIL]</text>
  <text x="104" y="390" fill="#ff5f57" font-family="monospace" font-size="12">  вњ -  DKIM    Selector missing                     [FAIL]</text>
  <text x="104" y="408" fill="#ff5f57" font-family="monospace" font-size="12">  вњ -  DMARC   No record  -  domain open to spoofing  [FAIL]</text>

  <text x="104" y="432" fill="#8894a8" font-family="monospace" font-size="12">в”Ѓв”Ѓв”Ѓв”Ѓв”Ѓв”Ѓв”Ѓв”Ѓв”Ѓв”Ѓв”Ѓв”Ѓв”Ѓв”Ѓв”Ѓв”Ѓв”Ѓв”Ѓв”Ѓв”Ѓв”Ѓв”Ѓв”Ѓв”Ѓв”Ѓв”Ѓв”Ѓв”Ѓв”Ѓв”Ѓв”Ѓв”Ѓв”Ѓв”Ѓв”Ѓв”Ѓв”Ѓв”Ѓв”Ѓв”Ѓв”Ѓв”Ѓв”Ѓв”Ѓв”Ѓв”Ѓв”Ѓв”Ѓв”Ѓв”Ѓв”Ѓ</text>
  <text x="104" y="454" fill="#28c840" font-family="monospace" font-size="12">Validating against EasyDMARC API...</text>
  <text x="104" y="472" fill="#b9c7e6" font-family="monospace" font-size="12">Exporting: report_2026-05-12.json  report_2026-05-12.csv</text>
  <text x="104" y="496" fill="#ff7a1a" font-family="monospace" font-size="12">Complete: 47 domains В· 38 pass В· 9 flagged В· EasyDMARC verified вњ“</text>
  <text x="104" y="518" fill="#28c840" font-family="monospace" font-size="12">$ <rect x="660" y="506" width="9" height="15" fill="#28c840" opacity=".8"/></text>
  <rect x="660" y="506" width="9" height="15" fill="#28c840" opacity=".8"/>
</g>

<!-- Flow diagram -->
<g transform="translate(780,136)" font-family="Arial">
  <rect x="0" y="0" width="340" height="420" rx="16" fill="#0d1628" stroke="rgba(255,122,26,.2)" stroke-width="1.5"/>
  <text x="170" y="32" text-anchor="middle" fill="#ff7a1a" font-size="15" font-weight="700">Automation Pipeline</text>

  <rect x="20" y="50" width="300" height="42" rx="8" fill="#111a33" stroke="url(#g)" stroke-width="1.5"/>
  <text x="170" y="75" text-anchor="middle" fill="#fff" font-size="13">рџ“‹ Domain list input (CSV)</text>

  <path d="M170 92 L170 108" stroke="#ff7a1a" stroke-width="2" marker-end="url(#arr)"/>
  <rect x="20" y="108" width="300" height="42" rx="8" fill="#111a33" stroke="url(#g)" stroke-width="1.5"/>
  <text x="170" y="133" text-anchor="middle" fill="#fff" font-size="13">рџ”Ќ dns.resolver queries</text>

  <path d="M170 150 L170 166" stroke="#ff7a1a" stroke-width="2"/>
  <rect x="20" y="166" width="300" height="42" rx="8" fill="#111a33" stroke="url(#g)" stroke-width="1.5"/>
  <text x="170" y="191" text-anchor="middle" fill="#fff" font-size="13">вљ™ Normalize SPF/DKIM/DMARC</text>

  <path d="M170 208 L170 224" stroke="#ff7a1a" stroke-width="2"/>
  <rect x="20" y="224" width="300" height="42" rx="8" fill="#111a33" stroke="#28c840" stroke-width="1.5"/>
  <text x="170" y="249" text-anchor="middle" fill="#28c840" font-size="13">вњ“ EasyDMARC validation</text>

  <path d="M170 266 L170 282" stroke="#ff7a1a" stroke-width="2"/>
  <rect x="20" y="282" width="142" height="42" rx="8" fill="#111a33" stroke="url(#g)" stroke-width="1.5"/>
  <text x="91" y="307" text-anchor="middle" fill="#fff" font-size="12">рџ“„ JSON output</text>
  <rect x="178" y="282" width="142" height="42" rx="8" fill="#111a33" stroke="url(#g)" stroke-width="1.5"/>
  <text x="249" y="307" text-anchor="middle" fill="#fff" font-size="12">рџ“Љ CSV report</text>

  <path d="M170 324 L170 340" stroke="#ff7a1a" stroke-width="2"/>
  <rect x="20" y="340" width="300" height="42" rx="8" fill="#111a33" stroke="#8aa9ff" stroke-width="1.5"/>
  <text x="170" y="365" text-anchor="middle" fill="#8aa9ff" font-size="13">рџ“§ Microsoft Graph delivery</text>

  <rect x="20" y="396" width="300" height="14" rx="4" fill="#0a1020"/>
  <rect x="20" y="396" width="222" height="14" rx="4" fill="url(#g)" opacity=".7"/>
  <text x="170" y="408" text-anchor="middle" fill="#fff" font-family="Arial" font-size="10">MSP coverage: 47 domains automated</text>
</g>

<text x="600" y="610" text-anchor="middle" fill="#fff" font-family="Arial" font-size="18" font-weight="700">Python В· DNS resolver В· EasyDMARC API В· Microsoft Graph В· JSON/CSV reporting</text>
<text x="600" y="642" text-anchor="middle" fill="#b9c7e6" font-family="Arial" font-size="14">Replacing hours of manual per-domain checks with structured, validated, repeatable results</text>
</svg>
