<svg xmlns="http://www.w3.org/2000/svg" viewBox="0 0 1200 720"><rect width="1200" height="720" rx="42" fill="#0b1020"/><text x="600" y="90" text-anchor="middle" fill="#fff" font-family="Arial" font-size="52" font-weight="800">RL Lane-Keeping Simulator</text><path d="M250 680 C350 460 420 270 600 180 C780 270 850 460 950 680" fill="none" stroke="#64748b" stroke-width="42" stroke-linecap="round"/><path d="M250 680 C350 460 420 270 600 180 C780 270 850 460 950 680" fill="none" stroke="#f8fafc" stroke-width="8" stroke-dasharray="45 45"/><g transform="translate(540 370)"><rect x="0" y="0" width="120" height="70" rx="22" fill="#2563eb"/><circle cx="25" cy="72" r="16" fill="#111827"/><circle cx="95" cy="72" r="16" fill="#111827"/><path d="M15 28 H105" stroke="#bfdbfe" stroke-width="10" stroke-linecap="round"/></g><g fill="none" stroke="#38bdf8" stroke-width="6" opacity=".85"><path d="M600 390 L440 250"/><path d="M600 390 L760 250"/><path d="M600 390 L600 180"/></g><g fill="#17213c" stroke="#38bdf8" stroke-width="5"><rect x="90" y="185" width="250" height="90" rx="24"/><rect x="860" y="185" width="250" height="90" rx="24"/></g><g fill="#dce8ff" font-family="Arial" font-size="22" text-anchor="middle"><text x="215" y="239">Reward Design</text><text x="985" y="239">Sensor Tradeoffs</text></g></svg>
