<svg xmlns="http://www.w3.org/2000/svg" viewBox="0 0 1200 720">
<defs>
  <linearGradient id="g" x1="0" x2="1"><stop stop-color="#ff7a1a"/><stop offset="1" stop-color="#ffd166"/></linearGradient>
  <linearGradient id="gb" x1="0" y1="0" x2="0" y2="1"><stop stop-color="#111a33"/><stop offset="1" stop-color="#0b1020"/></linearGradient>
  <filter id="s"><feDropShadow dx="0" dy="14" stdDeviation="16" flood-opacity=".38"/></filter>
</defs>
<rect width="1200" height="720" rx="42" fill="#0b1020"/>
<text x="600" y="68" text-anchor="middle" fill="#fff" font-family="Arial" font-size="52" font-weight="800">AILA</text>
<text x="600" y="106" text-anchor="middle" fill="#b9c7e6" font-family="Arial" font-size="22">AI Leadership Avatar · Illinois Tech Leadership Academy</text>

<!-- Avatar circle -->
<g filter="url(#s)">
  <circle cx="300" cy="360" r="160" fill="#111a33" stroke="url(#g)" stroke-width="5"/>
  <circle cx="300" cy="360" r="130" fill="none" stroke="#ff7a1a" stroke-width="1.5" opacity=".3" stroke-dasharray="6,5"/>
  <!-- Face suggestion -->
  <circle cx="265" cy="330" r="18" fill="#ff7a1a" opacity=".85"/>
  <circle cx="335" cy="330" r="18" fill="#ff7a1a" opacity=".85"/>
  <path d="M248 385 Q300 420 352 385" fill="none" stroke="#fff" stroke-width="7" stroke-linecap="round"/>
  <!-- Halo rings -->
  <circle cx="300" cy="360" r="148" fill="none" stroke="url(#g)" stroke-width="2" opacity=".4" stroke-dasharray="4,8"/>
</g>

<!-- Voice waveform -->
<g transform="translate(520, 280)">
  <rect x="0" y="60" width="500" height="3" rx="1.5" fill="#16213d"/>
  <!-- Wave bars -->
  <rect x="10" y="38" width="14" height="46" rx="7" fill="#ff7a1a" opacity=".5"/>
  <rect x="32" y="18" width="14" height="86" rx="7" fill="#ff7a1a" opacity=".8"/>
  <rect x="54" y="30" width="14" height="64" rx="7" fill="#ff7a1a" opacity=".65"/>
  <rect x="76" y="10" width="14" height="102" rx="7" fill="url(#g)" opacity=".9"/>
  <rect x="98" y="24" width="14" height="76" rx="7" fill="#ff7a1a" opacity=".75"/>
  <rect x="120" y="36" width="14" height="52" rx="7" fill="#ff7a1a" opacity=".6"/>
  <rect x="142" y="14" width="14" height="94" rx="7" fill="url(#g)" opacity=".85"/>
  <rect x="164" y="28" width="14" height="68" rx="7" fill="#ff7a1a" opacity=".7"/>
  <rect x="186" y="40" width="14" height="44" rx="7" fill="#ff7a1a" opacity=".55"/>
  <rect x="208" y="22" width="14" height="80" rx="7" fill="url(#g)" opacity=".8"/>
  <rect x="230" y="34" width="14" height="56" rx="7" fill="#ff7a1a" opacity=".65"/>
  <rect x="252" y="50" width="14" height="24" rx="7" fill="#ff7a1a" opacity=".45"/>
  <rect x="274" y="20" width="14" height="84" rx="7" fill="url(#g)" opacity=".82"/>
  <rect x="296" y="32" width="14" height="60" rx="7" fill="#ff7a1a" opacity=".68"/>
  <rect x="318" y="44" width="14" height="36" rx="7" fill="#ff7a1a" opacity=".52"/>
  <rect x="340" y="16" width="14" height="90" rx="7" fill="url(#g)" opacity=".88"/>
  <rect x="362" y="30" width="14" height="64" rx="7" fill="#ff7a1a" opacity=".72"/>
  <rect x="384" y="42" width="14" height="40" rx="7" fill="#ff7a1a" opacity=".58"/>
  <rect x="406" y="26" width="14" height="72" rx="7" fill="#ff7a1a" opacity=".74"/>
  <rect x="428" y="38" width="14" height="48" rx="7" fill="#ff7a1a" opacity=".6"/>
  <rect x="450" y="52" width="14" height="22" rx="7" fill="#ff7a1a" opacity=".44"/>
  <rect x="472" y="20" width="14" height="82" rx="7" fill="url(#g)" opacity=".8"/>
</g>

<!-- Chat bubbles -->
<g font-family="Arial">
  <rect x="520" y="420" width="380" height="48" rx="14" fill="#111a33" stroke="url(#g)" stroke-width="1.5"/>
  <text x="710" y="448" text-anchor="middle" fill="#b9c7e6" font-size="14">"Tell me about leadership development at Illinois Tech"</text>
  <rect x="620" y="484" width="280" height="48" rx="14" fill="#16213d" stroke="#ff7a1a" stroke-width="1.5"/>
  <text x="760" y="512" text-anchor="middle" fill="#fff" font-size="14">AILA responds with voice + text...</text>
</g>

<!-- Tech stack labels -->
<g font-family="Arial" text-anchor="middle">
  <rect x="100" y="564" width="100" height="32" rx="8" fill="#111a33" stroke="#ff7a1a" stroke-width="1.5"/>
  <text x="150" y="584" fill="#ff7a1a" font-size="13" font-weight="600">Azure</text>
  <rect x="214" y="564" width="100" height="32" rx="8" fill="#111a33" stroke="#ff7a1a" stroke-width="1.5"/>
  <text x="264" y="584" fill="#ff7a1a" font-size="13" font-weight="600">OpenVoice</text>
  <rect x="328" y="564" width="100" height="32" rx="8" fill="#111a33" stroke="#ff7a1a" stroke-width="1.5"/>
  <text x="378" y="584" fill="#ff7a1a" font-size="13" font-weight="600">Ollama LLM</text>
  <rect x="442" y="564" width="100" height="32" rx="8" fill="#111a33" stroke="#ff7a1a" stroke-width="1.5"/>
  <text x="492" y="584" fill="#ff7a1a" font-size="13" font-weight="600">Python</text>
  <rect x="556" y="564" width="100" height="32" rx="8" fill="#111a33" stroke="#ff7a1a" stroke-width="1.5"/>
  <text x="606" y="584" fill="#ff7a1a" font-size="13" font-weight="600">Speech API</text>
</g>

<text x="600" y="638" text-anchor="middle" fill="#fff" font-family="Arial" font-size="18" font-weight="700">Voice-driven AI avatar with cloned speech · live at aila-avatar.vercel.app</text>
<text x="600" y="666" text-anchor="middle" fill="#b9c7e6" font-family="Arial" font-size="14">OpenVoice TTS · Ollama LLM · Azure Cognitive Services · Scenario-based conversation</text>
</svg>
