<svg xmlns="http://www.w3.org/2000/svg" viewBox="0 0 1200 720">
<defs><linearGradient id="g" x1="0" x2="1"><stop stop-color="#ff7a1a"/><stop offset="1" stop-color="#ffd166"/></linearGradient><filter id="s"><feDropShadow dx="0" dy="16" stdDeviation="18" flood-opacity=".35"/></filter></defs>
<rect width="1200" height="720" rx="42" fill="#0b1020"/><circle cx="600" cy="330" r="210" fill="none" stroke="url(#g)" stroke-width="8" opacity=".6"/><text x="600" y="88" text-anchor="middle" fill="#fff" font-family="Arial" font-size="58" font-weight="800">OBSERV-E</text><text x="600" y="132" text-anchor="middle" fill="#b9c7e6" font-family="Arial" font-size="24">Accessibility Robotics Ecosystem</text>
<g filter="url(#s)"><rect x="465" y="230" width="270" height="170" rx="48" fill="#111a33" stroke="url(#g)" stroke-width="7"/><circle cx="548" cy="308" r="34" fill="#ff7a1a"/><circle cx="652" cy="308" r="34" fill="#ff7a1a"/><path d="M535 372 Q600 408 665 372" fill="none" stroke="#fff" stroke-width="9" stroke-linecap="round"/></g>
<g fill="none" stroke="#ff7a1a" stroke-width="8" stroke-linecap="round"><path d="M385 350 C300 325 235 290 176 236"/><path d="M815 350 C900 325 965 290 1024 236"/><path d="M600 430 C600 508 600 565 600 625"/></g>
<g font-family="Arial" text-anchor="middle"><g><circle cx="170" cy="220" r="82" fill="#16213d" stroke="#ff7a1a" stroke-width="6"/><text x="170" y="213" fill="#fff" font-size="42" font-weight="800">G</text><text x="170" y="252" fill="#b9c7e6" font-size="20">GRVI</text></g><g><circle cx="1030" cy="220" r="82" fill="#16213d" stroke="#ff7a1a" stroke-width="6"/><text x="1030" y="213" fill="#fff" font-size="42" font-weight="800">D</text><text x="1030" y="252" fill="#b9c7e6" font-size="20">DRVI</text></g><g><circle cx="600" cy="625" r="82" fill="#16213d" stroke="#ff7a1a" stroke-width="6"/><text x="600" y="618" fill="#fff" font-size="42" font-weight="800">H</text><text x="600" y="657" fill="#b9c7e6" font-size="20">HRVI</text></g></g>
<text x="600" y="500" text-anchor="middle" fill="#fff" font-family="Arial" font-size="24">Robot vision + Bluetooth signals → haptic guidance</text>
</svg>
